<?xml version="1.0" encoding="UTF-8"?>
<!DOCTYPE svg PUBLIC "-//W3C//DTD SVG 1.1//EN" "http://www.w3.org/Graphics/SVG/1.1/DTD/svg11.dtd">
<svg xmlns="http://www.w3.org/2000/svg" version="1.1" width="500px" height="500px" style="shape-rendering:geometricPrecision; text-rendering:geometricPrecision; image-rendering:optimizeQuality; fill-rule:evenodd; clip-rule:evenodd" xmlns:xlink="http://www.w3.org/1999/xlink">
<g><path style="opacity:0.992" fill="#ff914d" d="M 215.5,445.5 C 222.949,442.941 230.282,440.108 237.5,437C 273.286,417.915 305.786,394.082 335,365.5C 337.765,361.739 340.098,357.739 342,353.5C 344.736,344.96 343.736,336.96 339,329.5C 329.727,322.224 319.227,319.724 307.5,322C 309.37,319.96 311.37,318.127 313.5,316.5C 317.566,313.437 320.899,309.771 323.5,305.5C 325.167,303.5 326.833,301.5 328.5,299.5C 330.914,298.089 332.581,296.089 333.5,293.5C 337.171,288.32 340.671,282.986 344,277.5C 347.639,268.905 347.306,260.572 343,252.5C 339.306,248.439 334.806,245.772 329.5,244.5C 324.684,243.35 319.684,243.184 314.5,244C 313.584,244.278 312.918,244.778 312.5,245.5C 302.86,248.153 294.193,252.653 286.5,259C 285.241,259.982 283.908,260.315 282.5,260C 284.713,255.756 287.546,251.923 291,248.5C 294.961,240.613 299.294,232.946 304,225.5C 308.37,217.689 310.037,209.356 309,200.5C 305.141,188.223 296.807,182.223 284,182.5C 278.75,182.112 273.916,183.279 269.5,186C 254.418,197.08 240.585,209.58 228,223.5C 230.909,215.083 234.076,206.75 237.5,198.5C 241.287,190.459 242.287,182.126 240.5,173.5C 238.658,161.159 231.491,154.493 219,153.5C 213.941,153.778 209.108,154.945 204.5,157C 202.079,159.094 199.412,160.76 196.5,162C 167.263,190.204 143.097,222.037 124,257.5C 123.501,253.179 123.334,248.846 123.5,244.5C 123.375,239.206 122.375,234.206 120.5,229.5C 119.359,220.704 115.025,214.037 107.5,209.5C 102.26,206.653 97.2599,206.987 92.5,210.5C 85.7996,212.679 80.2996,216.679 76,222.5C 63.258,241.876 54.0914,262.876 48.5,285.5C 11.2967,242.577 4.4634,195.244 28,143.5C 63.0545,82.8998 114.888,60.3998 183.5,76C 210.542,84.0594 233.042,98.8928 251,120.5C 279.403,85.7267 316.237,69.56 361.5,72C 406.862,76.4141 441.362,97.9141 465,136.5C 492.904,192.141 486.571,243.474 446,290.5C 381.304,354.196 316.304,417.53 251,480.5C 239.272,468.604 227.438,456.937 215.5,445.5 Z"/></g>
<g><path style="opacity:1" fill="#fffefd" d="M 240.5,173.5 C 240.666,177.846 240.499,182.179 240,186.5C 238.846,190.447 238.013,194.447 237.5,198.5C 234.076,206.75 230.909,215.083 228,223.5C 240.585,209.58 254.418,197.08 269.5,186C 273.916,183.279 278.75,182.112 284,182.5C 296.807,182.223 305.141,188.223 309,200.5C 310.037,209.356 308.37,217.689 304,225.5C 299.294,232.946 294.961,240.613 291,248.5C 287.546,251.923 284.713,255.756 282.5,260C 283.908,260.315 285.241,259.982 286.5,259C 294.193,252.653 302.86,248.153 312.5,245.5C 318.13,244.708 323.797,244.375 329.5,244.5C 334.806,245.772 339.306,248.439 343,252.5C 347.306,260.572 347.639,268.905 344,277.5C 340.671,282.986 337.171,288.32 333.5,293.5C 331.086,294.911 329.419,296.911 328.5,299.5C 326.833,301.5 325.167,303.5 323.5,305.5C 319.434,308.563 316.101,312.229 313.5,316.5C 311.37,318.127 309.37,319.96 307.5,322C 319.227,319.724 329.727,322.224 339,329.5C 343.736,336.96 344.736,344.96 342,353.5C 340.098,357.739 337.765,361.739 335,365.5C 305.786,394.082 273.286,417.915 237.5,437C 230.282,440.108 222.949,442.941 215.5,445.5C 197.601,429.056 179.934,412.389 162.5,395.5C 182.785,394.4 198.952,385.733 211,369.5C 214.394,362.027 215.061,354.36 213,346.5C 205.317,333.761 194.484,330.261 180.5,336C 174.189,339.492 168.189,343.492 162.5,348C 160.167,348.667 157.833,348.667 155.5,348C 154.02,346.701 153.354,345.034 153.5,343C 158.89,333.257 161.057,322.757 160,311.5C 155.567,302.161 148.734,299.994 139.5,305C 125.544,316.091 116.544,330.258 112.5,347.5C 90.836,327.169 69.5027,306.503 48.5,285.5C 54.0914,262.876 63.258,241.876 76,222.5C 80.2996,216.679 85.7996,212.679 92.5,210.5C 97.4376,209.608 102.438,209.274 107.5,209.5C 115.025,214.037 119.359,220.704 120.5,229.5C 120.882,234.744 121.882,239.744 123.5,244.5C 123.334,248.846 123.501,253.179 124,257.5C 143.097,222.037 167.263,190.204 196.5,162C 199.412,160.76 202.079,159.094 204.5,157C 209.108,154.945 213.941,153.778 219,153.5C 231.491,154.493 238.658,161.159 240.5,173.5 Z"/></g>
<g><path style="opacity:1" fill="#ffb98e" d="M 240.5,173.5 C 242.287,182.126 241.287,190.459 237.5,198.5C 238.013,194.447 238.846,190.447 240,186.5C 240.499,182.179 240.666,177.846 240.5,173.5 Z"/></g>
<g><path style="opacity:1" fill="#ffdec9" d="M 107.5,209.5 C 102.438,209.274 97.4376,209.608 92.5,210.5C 97.2599,206.987 102.26,206.653 107.5,209.5 Z"/></g>
<g><path style="opacity:1" fill="#ffdcc7" d="M 120.5,229.5 C 122.375,234.206 123.375,239.206 123.5,244.5C 121.882,239.744 120.882,234.744 120.5,229.5 Z"/></g>
<g><path style="opacity:1" fill="#ffdcc7" d="M 329.5,244.5 C 323.797,244.375 318.13,244.708 312.5,245.5C 312.918,244.778 313.584,244.278 314.5,244C 319.684,243.184 324.684,243.35 329.5,244.5 Z"/></g>
<g><path style="opacity:1" fill="#ffb98e" d="M 333.5,293.5 C 332.581,296.089 330.914,298.089 328.5,299.5C 329.419,296.911 331.086,294.911 333.5,293.5 Z"/></g>
<g><path style="opacity:0.993" fill="#ff914e" d="M 162.5,395.5 C 146.163,379.163 129.497,363.163 112.5,347.5C 116.544,330.258 125.544,316.091 139.5,305C 148.734,299.994 155.567,302.161 160,311.5C 161.057,322.757 158.89,333.257 153.5,343C 153.354,345.034 154.02,346.701 155.5,348C 157.833,348.667 160.167,348.667 162.5,348C 168.189,343.492 174.189,339.492 180.5,336C 194.484,330.261 205.317,333.761 213,346.5C 215.061,354.36 214.394,362.027 211,369.5C 198.952,385.733 182.785,394.4 162.5,395.5 Z"/></g>
<g><path style="opacity:1" fill="#ffb282" d="M 323.5,305.5 C 320.899,309.771 317.566,313.437 313.5,316.5C 316.101,312.229 319.434,308.563 323.5,305.5 Z"/></g>
</svg>
